<svg width="24" height="24" viewBox="0 0 24 24" fill="none" xmlns="http://www.w3.org/2000/svg">
  <!-- Camera body -->
  <path d="M23 19C23 19.5304 22.7893 20.0391 22.4142 20.4142C22.0391 20.7893 21.5304 21 21 21H3C2.46957 21 1.96086 20.7893 1.58579 20.4142C1.21071 20.0391 1 19.5304 1 19V8C1 7.46957 1.21071 6.96086 1.58579 6.58579C1.96086 6.21071 2.46957 6 3 6H7L9 3H15L17 6H21C21.5304 6 22.0391 6.21071 22.4142 6.58579C22.7893 6.96086 23 7.46957 23 8V19Z" stroke="#3b82f6" stroke-width="2" stroke-linecap="round" stroke-linejoin="round"/>
  <!-- Camera lens -->
  <circle cx="12" cy="13" r="3" stroke="#3b82f6" stroke-width="2"/>
  <!-- Focus frame corners -->
  <path d="M8 10L8 8L10 8" stroke="#10b981" stroke-width="1.5" stroke-linecap="round" stroke-linejoin="round"/>
  <path d="M16 10L16 8L14 8" stroke="#10b981" stroke-width="1.5" stroke-linecap="round" stroke-linejoin="round"/>
  <path d="M8 16L8 18L10 18" stroke="#10b981" stroke-width="1.5" stroke-linecap="round" stroke-linejoin="round"/>
  <path d="M16 16L16 18L14 18" stroke="#10b981" stroke-width="1.5" stroke-linecap="round" stroke-linejoin="round"/>
</svg>
